<svg xmlns="http://www.w3.org/2000/svg" width="861.00" height="279.00" font-family="sans-serif" font-size="12.00">
<style>text { stroke: none; }</style>
  <rect x="1.00" y="1.00" width="60.40" height="26.80" fill="#F0F0F0"/>
  <text x="31.20" y="14.40" fill="black" text-anchor="middle" dominant-baseline="middle">LABEL</text>
  <rect x="62.40" y="1.00" width="53.20" height="26.80" fill="#F0F0F0"/>
  <text x="89.00" y="14.40" fill="black" text-anchor="middle" dominant-baseline="middle">X 1</text>
  <rect x="116.60" y="1.00" width="53.20" height="26.80" fill="#F0F0F0"/>
  <text x="143.20" y="14.40" fill="black" text-anchor="middle" dominant-baseline="middle">X 2</text>
  <rect x="170.80" y="1.00" width="53.20" height="26.80" fill="#F0F0F0"/>
  <text x="197.40" y="14.40" fill="black" text-anchor="middle" dominant-baseline="middle">X 3</text>
  <rect x="225.00" y="1.00" width="53.20" height="26.80" fill="#F0F0F0"/>
  <text x="251.60" y="14.40" fill="black" text-anchor="middle" dominant-baseline="middle">X 4</text>
  <rect x="279.20" y="1.00" width="53.20" height="26.80" fill="#F0F0F0"/>
  <text x="305.80" y="14.40" fill="black" text-anchor="middle" dominant-baseline="middle">X 5</text>
  <rect x="333.40" y="1.00" width="53.20" height="26.80" fill="#F0F0F0"/>
  <text x="360.00" y="14.40" fill="black" text-anchor="middle" dominant-baseline="middle">X 6</text>
  <rect x="387.60" y="1.00" width="53.20" height="26.80" fill="#F0F0F0"/>
  <text x="414.20" y="14.40" fill="black" text-anchor="middle" dominant-baseline="middle">X 7</text>
  <rect x="441.80" y="1.00" width="53.20" height="26.80" fill="#F0F0F0"/>
  <text x="468.40" y="14.40" fill="black" text-anchor="middle" dominant-baseline="middle">X 8</text>
  <rect x="496.00" y="1.00" width="53.20" height="26.80" fill="#F0F0F0"/>
  <text x="522.60" y="14.40" fill="black" text-anchor="middle" dominant-baseline="middle">X 9</text>
  <rect x="550.20" y="1.00" width="53.20" height="26.80" fill="#F0F0F0"/>
  <text x="576.80" y="14.40" fill="black" text-anchor="middle" dominant-baseline="middle">X 10</text>
  <rect x="604.40" y="1.00" width="46.00" height="26.80" fill="#F0F0F0"/>
  <text x="627.40" y="14.40" fill="black" text-anchor="middle" dominant-baseline="middle">MEAN</text>
  <rect x="651.40" y="1.00" width="53.20" height="26.80" fill="#F0F0F0"/>
  <text x="678.00" y="14.40" fill="black" text-anchor="middle" dominant-baseline="middle">STDDEV</text>
  <rect x="705.60" y="1.00" width="46.00" height="26.80" fill="#F0F0F0"/>
  <text x="728.60" y="14.40" fill="black" text-anchor="middle" dominant-baseline="middle">SEM</text>
  <rect x="752.60" y="1.00" width="53.20" height="26.80" fill="#F0F0F0"/>
  <text x="779.20" y="14.40" fill="black" text-anchor="middle" dominant-baseline="middle">CI 95</text>
  <rect x="806.80" y="1.00" width="53.20" height="26.80" fill="#F0F0F0"/>
  <text x="833.40" y="14.40" fill="black" text-anchor="middle" dominant-baseline="middle">CV</text>
  <rect x="1.00" y="28.80" width="60.40" height="26.80" fill="white"/>
  <text x="6.00" y="42.20" fill="black" text-anchor="start" dominant-baseline="middle">joey</text>
  <rect x="62.40" y="28.80" width="53.20" height="26.80" fill="white"/>
  <text x="67.40" y="42.20" fill="black" text-anchor="start" dominant-baseline="middle">2.22s</text>
  <rect x="116.60" y="28.80" width="53.20" height="26.80" fill="white"/>
  <text x="121.60" y="42.20" fill="black" text-anchor="start" dominant-baseline="middle">2.74s</text>
  <rect x="170.80" y="28.80" width="53.20" height="26.80" fill="white"/>
  <text x="175.80" y="42.20" fill="black" text-anchor="start" dominant-baseline="middle">3.31s</text>
  <rect x="225.00" y="28.80" width="53.20" height="26.80" fill="white"/>
  <text x="230.00" y="42.20" fill="black" text-anchor="start" dominant-baseline="middle">3.02s</text>
  <rect x="279.20" y="28.80" width="53.20" height="26.80" fill="white"/>
  <text x="284.20" y="42.20" fill="black" text-anchor="start" dominant-baseline="middle">3.11s</text>
  <rect x="333.40" y="28.80" width="53.20" height="26.80" fill="white"/>
  <text x="338.40" y="42.20" fill="black" text-anchor="start" dominant-baseline="middle">2.99s</text>
  <rect x="387.60" y="28.80" width="53.20" height="26.80" fill="white"/>
  <text x="392.60" y="42.20" fill="black" text-anchor="start" dominant-baseline="middle">2.61s</text>
  <rect x="441.80" y="28.80" width="53.20" height="26.80" fill="white"/>
  <text x="446.80" y="42.20" fill="black" text-anchor="start" dominant-baseline="middle">2.99s</text>
  <rect x="496.00" y="28.80" width="53.20" height="26.80" fill="white"/>
  <text x="501.00" y="42.20" fill="black" text-anchor="start" dominant-baseline="middle">2.99s</text>
  <rect x="550.20" y="28.80" width="53.20" height="26.80" fill="white"/>
  <text x="555.20" y="42.20" fill="black" text-anchor="start" dominant-baseline="middle">3.42s</text>
  <rect x="604.40" y="28.80" width="46.00" height="26.80" fill="white"/>
  <text x="609.40" y="42.20" fill="black" text-anchor="start" dominant-baseline="middle">2.94s</text>
  <rect x="651.40" y="28.80" width="53.20" height="26.80" fill="white"/>
  <text x="656.40" y="42.20" fill="black" text-anchor="start" dominant-baseline="middle">0.33s</text>
  <rect x="705.60" y="28.80" width="46.00" height="26.80" fill="white"/>
  <text x="710.60" y="42.20" fill="black" text-anchor="start" dominant-baseline="middle">0.10s</text>
  <rect x="752.60" y="28.80" width="53.20" height="26.80" fill="white"/>
  <text x="757.60" y="42.20" fill="black" text-anchor="start" dominant-baseline="middle">±0.20s</text>
  <rect x="806.80" y="28.80" width="53.20" height="26.80" fill="white"/>
  <text x="811.80" y="42.20" fill="black" text-anchor="start" dominant-baseline="middle">11.16%</text>
  <rect x="1.00" y="56.60" width="60.40" height="26.80" fill="#F9F9F9"/>
  <text x="6.00" y="70.00" fill="black" text-anchor="start" dominant-baseline="middle">sujan</text>
  <rect x="62.40" y="56.60" width="53.20" height="26.80" fill="#F9F9F9"/>
  <text x="67.40" y="70.00" fill="black" text-anchor="start" dominant-baseline="middle">3.12s</text>
  <rect x="116.60" y="56.60" width="53.20" height="26.80" fill="#F9F9F9"/>
  <text x="121.60" y="70.00" fill="black" text-anchor="start" dominant-baseline="middle">2.89s</text>
  <rect x="170.80" y="56.60" width="53.20" height="26.80" fill="#F9F9F9"/>
  <text x="175.80" y="70.00" fill="black" text-anchor="start" dominant-baseline="middle">2.91s</text>
  <rect x="225.00" y="56.60" width="53.20" height="26.80" fill="#F9F9F9"/>
  <text x="230.00" y="70.00" fill="black" text-anchor="start" dominant-baseline="middle">2.99s</text>
  <rect x="279.20" y="56.60" width="53.20" height="26.80" fill="#F9F9F9"/>
  <text x="284.20" y="70.00" fill="black" text-anchor="start" dominant-baseline="middle">2.91s</text>
  <rect x="333.40" y="56.60" width="53.20" height="26.80" fill="#F9F9F9"/>
  <text x="338.40" y="70.00" fill="black" text-anchor="start" dominant-baseline="middle">2.72s</text>
  <rect x="387.60" y="56.60" width="53.20" height="26.80" fill="#F9F9F9"/>
  <text x="392.60" y="70.00" fill="black" text-anchor="start" dominant-baseline="middle">2.92s</text>
  <rect x="441.80" y="56.60" width="53.20" height="26.80" fill="#F9F9F9"/>
  <text x="446.80" y="70.00" fill="black" text-anchor="start" dominant-baseline="middle">3.10s</text>
  <rect x="496.00" y="56.60" width="53.20" height="26.80" fill="#F9F9F9"/>
  <text x="501.00" y="70.00" fill="black" text-anchor="start" dominant-baseline="middle">2.89s</text>
  <rect x="550.20" y="56.60" width="53.20" height="26.80" fill="#F9F9F9"/>
  <text x="555.20" y="70.00" fill="black" text-anchor="start" dominant-baseline="middle">2.99s</text>
  <rect x="604.40" y="56.60" width="46.00" height="26.80" fill="#F9F9F9"/>
  <text x="609.40" y="70.00" fill="black" text-anchor="start" dominant-baseline="middle">2.94s</text>
  <rect x="651.40" y="56.60" width="53.20" height="26.80" fill="#F9F9F9"/>
  <text x="656.40" y="70.00" fill="black" text-anchor="start" dominant-baseline="middle">0.11s</text>
  <rect x="705.60" y="56.60" width="46.00" height="26.80" fill="#F9F9F9"/>
  <text x="710.60" y="70.00" fill="black" text-anchor="start" dominant-baseline="middle">0.03s</text>
  <rect x="752.60" y="56.60" width="53.20" height="26.80" fill="#F9F9F9"/>
  <text x="757.60" y="70.00" fill="black" text-anchor="start" dominant-baseline="middle">±0.07s</text>
  <rect x="806.80" y="56.60" width="53.20" height="26.80" fill="#F9F9F9"/>
  <text x="811.80" y="70.00" fill="black" text-anchor="start" dominant-baseline="middle">3.70%</text>
  <rect x="1.00" y="84.40" width="60.40" height="26.80" fill="white"/>
  <text x="6.00" y="97.80" fill="black" text-anchor="start" dominant-baseline="middle">phillip</text>
  <rect x="62.40" y="84.40" width="53.20" height="26.80" fill="white"/>
  <text x="67.40" y="97.80" fill="black" text-anchor="start" dominant-baseline="middle">2.76s</text>
  <rect x="116.60" y="84.40" width="53.20" height="26.80" fill="white"/>
  <text x="121.60" y="97.80" fill="black" text-anchor="start" dominant-baseline="middle">3.10s</text>
  <rect x="170.80" y="84.40" width="53.20" height="26.80" fill="white"/>
  <text x="175.80" y="97.80" fill="black" text-anchor="start" dominant-baseline="middle">2.54s</text>
  <rect x="225.00" y="84.40" width="53.20" height="26.80" fill="white"/>
  <text x="230.00" y="97.80" fill="black" text-anchor="start" dominant-baseline="middle">2.57s</text>
  <rect x="279.20" y="84.40" width="53.20" height="26.80" fill="white"/>
  <text x="284.20" y="97.80" fill="black" text-anchor="start" dominant-baseline="middle">2.57s</text>
  <rect x="333.40" y="84.40" width="53.20" height="26.80" fill="white"/>
  <text x="338.40" y="97.80" fill="black" text-anchor="start" dominant-baseline="middle">2.89s</text>
  <rect x="387.60" y="84.40" width="53.20" height="26.80" fill="white"/>
  <text x="392.60" y="97.80" fill="black" text-anchor="start" dominant-baseline="middle">2.52s</text>
  <rect x="441.80" y="84.40" width="53.20" height="26.80" fill="white"/>
  <text x="446.80" y="97.80" fill="black" text-anchor="start" dominant-baseline="middle">2.49s</text>
  <rect x="496.00" y="84.40" width="53.20" height="26.80" fill="white"/>
  <text x="501.00" y="97.80" fill="black" text-anchor="start" dominant-baseline="middle">2.71s</text>
  <rect x="550.20" y="84.40" width="53.20" height="26.80" fill="white"/>
  <text x="555.20" y="97.80" fill="black" text-anchor="start" dominant-baseline="middle">3.11s</text>
  <rect x="604.40" y="84.40" width="46.00" height="26.80" fill="white"/>
  <text x="609.40" y="97.80" fill="black" text-anchor="start" dominant-baseline="middle">2.73s</text>
  <rect x="651.40" y="84.40" width="53.20" height="26.80" fill="white"/>
  <text x="656.40" y="97.80" fill="black" text-anchor="start" dominant-baseline="middle">0.22s</text>
  <rect x="705.60" y="84.40" width="46.00" height="26.80" fill="white"/>
  <text x="710.60" y="97.80" fill="black" text-anchor="start" dominant-baseline="middle">0.07s</text>
  <rect x="752.60" y="84.40" width="53.20" height="26.80" fill="white"/>
  <text x="757.60" y="97.80" fill="black" text-anchor="start" dominant-baseline="middle">±0.14s</text>
  <rect x="806.80" y="84.40" width="53.20" height="26.80" fill="white"/>
  <text x="811.80" y="97.80" fill="black" text-anchor="start" dominant-baseline="middle">8.18%</text>
  <rect x="1.00" y="112.20" width="60.40" height="26.80" fill="#F9F9F9"/>
  <text x="6.00" y="125.60" fill="black" text-anchor="start" dominant-baseline="middle">lamine</text>
  <rect x="62.40" y="112.20" width="53.20" height="26.80" fill="#F9F9F9"/>
  <text x="67.40" y="125.60" fill="black" text-anchor="start" dominant-baseline="middle">1.99s</text>
  <rect x="116.60" y="112.20" width="53.20" height="26.80" fill="#F9F9F9"/>
  <text x="121.60" y="125.60" fill="black" text-anchor="start" dominant-baseline="middle">2.41s</text>
  <rect x="170.80" y="112.20" width="53.20" height="26.80" fill="#F9F9F9"/>
  <text x="175.80" y="125.60" fill="black" text-anchor="start" dominant-baseline="middle">2.95s</text>
  <rect x="225.00" y="112.20" width="53.20" height="26.80" fill="#F9F9F9"/>
  <text x="230.00" y="125.60" fill="black" text-anchor="start" dominant-baseline="middle">2.52s</text>
  <rect x="279.20" y="112.20" width="53.20" height="26.80" fill="#F9F9F9"/>
  <text x="284.20" y="125.60" fill="black" text-anchor="start" dominant-baseline="middle">2.31s</text>
  <rect x="333.40" y="112.20" width="53.20" height="26.80" fill="#F9F9F9"/>
  <text x="338.40" y="125.60" fill="black" text-anchor="start" dominant-baseline="middle">2.02s</text>
  <rect x="387.60" y="112.20" width="53.20" height="26.80" fill="#F9F9F9"/>
  <text x="392.60" y="125.60" fill="black" text-anchor="start" dominant-baseline="middle">2.39s</text>
  <rect x="441.80" y="112.20" width="53.20" height="26.80" fill="#F9F9F9"/>
  <text x="446.80" y="125.60" fill="black" text-anchor="start" dominant-baseline="middle">2.97s</text>
  <rect x="496.00" y="112.20" width="53.20" height="26.80" fill="#F9F9F9"/>
  <text x="501.00" y="125.60" fill="black" text-anchor="start" dominant-baseline="middle">2.34s</text>
  <rect x="550.20" y="112.20" width="53.20" height="26.80" fill="#F9F9F9"/>
  <text x="555.20" y="125.60" fill="black" text-anchor="start" dominant-baseline="middle">2.27s</text>
  <rect x="604.40" y="112.20" width="46.00" height="26.80" fill="#F9F9F9"/>
  <text x="609.40" y="125.60" fill="black" text-anchor="start" dominant-baseline="middle">2.42s</text>
  <rect x="651.40" y="112.20" width="53.20" height="26.80" fill="#F9F9F9"/>
  <text x="656.40" y="125.60" fill="black" text-anchor="start" dominant-baseline="middle">0.31s</text>
  <rect x="705.60" y="112.20" width="46.00" height="26.80" fill="#F9F9F9"/>
  <text x="710.60" y="125.60" fill="black" text-anchor="start" dominant-baseline="middle">0.10s</text>
  <rect x="752.60" y="112.20" width="53.20" height="26.80" fill="#F9F9F9"/>
  <text x="757.60" y="125.60" fill="black" text-anchor="start" dominant-baseline="middle">±0.19s</text>
  <rect x="806.80" y="112.20" width="53.20" height="26.80" fill="#F9F9F9"/>
  <text x="811.80" y="125.60" fill="black" text-anchor="start" dominant-baseline="middle">12.95%</text>
  <rect x="1.00" y="140.00" width="60.40" height="26.80" fill="white"/>
  <text x="6.00" y="153.40" fill="black" text-anchor="start" dominant-baseline="middle">MEAN</text>
  <rect x="62.40" y="140.00" width="53.20" height="26.80" fill="white"/>
  <text x="67.40" y="153.40" fill="black" text-anchor="start" dominant-baseline="middle">2.52s</text>
  <rect x="116.60" y="140.00" width="53.20" height="26.80" fill="white"/>
  <text x="121.60" y="153.40" fill="black" text-anchor="start" dominant-baseline="middle">2.79s</text>
  <rect x="170.80" y="140.00" width="53.20" height="26.80" fill="white"/>
  <text x="175.80" y="153.40" fill="black" text-anchor="start" dominant-baseline="middle">2.93s</text>
  <rect x="225.00" y="140.00" width="53.20" height="26.80" fill="white"/>
  <text x="230.00" y="153.40" fill="black" text-anchor="start" dominant-baseline="middle">2.77s</text>
  <rect x="279.20" y="140.00" width="53.20" height="26.80" fill="white"/>
  <text x="284.20" y="153.40" fill="black" text-anchor="start" dominant-baseline="middle">2.73s</text>
  <rect x="333.40" y="140.00" width="53.20" height="26.80" fill="white"/>
  <text x="338.40" y="153.40" fill="black" text-anchor="start" dominant-baseline="middle">2.66s</text>
  <rect x="387.60" y="140.00" width="53.20" height="26.80" fill="white"/>
  <text x="392.60" y="153.40" fill="black" text-anchor="start" dominant-baseline="middle">2.61s</text>
  <rect x="441.80" y="140.00" width="53.20" height="26.80" fill="white"/>
  <text x="446.80" y="153.40" fill="black" text-anchor="start" dominant-baseline="middle">2.89s</text>
  <rect x="496.00" y="140.00" width="53.20" height="26.80" fill="white"/>
  <text x="501.00" y="153.40" fill="black" text-anchor="start" dominant-baseline="middle">2.73s</text>
  <rect x="550.20" y="140.00" width="53.20" height="26.80" fill="white"/>
  <text x="555.20" y="153.40" fill="black" text-anchor="start" dominant-baseline="middle">2.95s</text>
  <rect x="604.40" y="140.00" width="46.00" height="26.80" fill="white"/>
  <text x="609.40" y="153.40" fill="black" text-anchor="start" dominant-baseline="middle"></text>
  <rect x="651.40" y="140.00" width="53.20" height="26.80" fill="white"/>
  <text x="656.40" y="153.40" fill="black" text-anchor="start" dominant-baseline="middle"></text>
  <rect x="705.60" y="140.00" width="46.00" height="26.80" fill="white"/>
  <text x="710.60" y="153.40" fill="black" text-anchor="start" dominant-baseline="middle"></text>
  <rect x="752.60" y="140.00" width="53.20" height="26.80" fill="white"/>
  <text x="757.60" y="153.40" fill="black" text-anchor="start" dominant-baseline="middle"></text>
  <rect x="806.80" y="140.00" width="53.20" height="26.80" fill="white"/>
  <text x="811.80" y="153.40" fill="black" text-anchor="start" dominant-baseline="middle"></text>
  <rect x="1.00" y="167.80" width="60.40" height="26.80" fill="#F9F9F9"/>
  <text x="6.00" y="181.20" fill="black" text-anchor="start" dominant-baseline="middle">STDDEV</text>
  <rect x="62.40" y="167.80" width="53.20" height="26.80" fill="#F9F9F9"/>
  <text x="67.40" y="181.20" fill="black" text-anchor="start" dominant-baseline="middle">0.44s</text>
  <rect x="116.60" y="167.80" width="53.20" height="26.80" fill="#F9F9F9"/>
  <text x="121.60" y="181.20" fill="black" text-anchor="start" dominant-baseline="middle">0.25s</text>
  <rect x="170.80" y="167.80" width="53.20" height="26.80" fill="#F9F9F9"/>
  <text x="175.80" y="181.20" fill="black" text-anchor="start" dominant-baseline="middle">0.27s</text>
  <rect x="225.00" y="167.80" width="53.20" height="26.80" fill="#F9F9F9"/>
  <text x="230.00" y="181.20" fill="black" text-anchor="start" dominant-baseline="middle">0.23s</text>
  <rect x="279.20" y="167.80" width="53.20" height="26.80" fill="#F9F9F9"/>
  <text x="284.20" y="181.20" fill="black" text-anchor="start" dominant-baseline="middle">0.31s</text>
  <rect x="333.40" y="167.80" width="53.20" height="26.80" fill="#F9F9F9"/>
  <text x="338.40" y="181.20" fill="black" text-anchor="start" dominant-baseline="middle">0.38s</text>
  <rect x="387.60" y="167.80" width="53.20" height="26.80" fill="#F9F9F9"/>
  <text x="392.60" y="181.20" fill="black" text-anchor="start" dominant-baseline="middle">0.20s</text>
  <rect x="441.80" y="167.80" width="53.20" height="26.80" fill="#F9F9F9"/>
  <text x="446.80" y="181.20" fill="black" text-anchor="start" dominant-baseline="middle">0.23s</text>
  <rect x="496.00" y="167.80" width="53.20" height="26.80" fill="#F9F9F9"/>
  <text x="501.00" y="181.20" fill="black" text-anchor="start" dominant-baseline="middle">0.25s</text>
  <rect x="550.20" y="167.80" width="53.20" height="26.80" fill="#F9F9F9"/>
  <text x="555.20" y="181.20" fill="black" text-anchor="start" dominant-baseline="middle">0.42s</text>
  <rect x="604.40" y="167.80" width="46.00" height="26.80" fill="#F9F9F9"/>
  <text x="609.40" y="181.20" fill="black" text-anchor="start" dominant-baseline="middle"></text>
  <rect x="651.40" y="167.80" width="53.20" height="26.80" fill="#F9F9F9"/>
  <text x="656.40" y="181.20" fill="black" text-anchor="start" dominant-baseline="middle"></text>
  <rect x="705.60" y="167.80" width="46.00" height="26.80" fill="#F9F9F9"/>
  <text x="710.60" y="181.20" fill="black" text-anchor="start" dominant-baseline="middle"></text>
  <rect x="752.60" y="167.80" width="53.20" height="26.80" fill="#F9F9F9"/>
  <text x="757.60" y="181.20" fill="black" text-anchor="start" dominant-baseline="middle"></text>
  <rect x="806.80" y="167.80" width="53.20" height="26.80" fill="#F9F9F9"/>
  <text x="811.80" y="181.20" fill="black" text-anchor="start" dominant-baseline="middle"></text>
  <rect x="1.00" y="195.60" width="60.40" height="26.80" fill="white"/>
  <text x="6.00" y="209.00" fill="black" text-anchor="start" dominant-baseline="middle">SEM</text>
  <rect x="62.40" y="195.60" width="53.20" height="26.80" fill="white"/>
  <text x="67.40" y="209.00" fill="black" text-anchor="start" dominant-baseline="middle">0.22s</text>
  <rect x="116.60" y="195.60" width="53.20" height="26.80" fill="white"/>
  <text x="121.60" y="209.00" fill="black" text-anchor="start" dominant-baseline="middle">0.13s</text>
  <rect x="170.80" y="195.60" width="53.20" height="26.80" fill="white"/>
  <text x="175.80" y="209.00" fill="black" text-anchor="start" dominant-baseline="middle">0.14s</text>
  <rect x="225.00" y="195.60" width="53.20" height="26.80" fill="white"/>
  <text x="230.00" y="209.00" fill="black" text-anchor="start" dominant-baseline="middle">0.12s</text>
  <rect x="279.20" y="195.60" width="53.20" height="26.80" fill="white"/>
  <text x="284.20" y="209.00" fill="black" text-anchor="start" dominant-baseline="middle">0.15s</text>
  <rect x="333.40" y="195.60" width="53.20" height="26.80" fill="white"/>
  <text x="338.40" y="209.00" fill="black" text-anchor="start" dominant-baseline="middle">0.19s</text>
  <rect x="387.60" y="195.60" width="53.20" height="26.80" fill="white"/>
  <text x="392.60" y="209.00" fill="black" text-anchor="start" dominant-baseline="middle">0.10s</text>
  <rect x="441.80" y="195.60" width="53.20" height="26.80" fill="white"/>
  <text x="446.80" y="209.00" fill="black" text-anchor="start" dominant-baseline="middle">0.12s</text>
  <rect x="496.00" y="195.60" width="53.20" height="26.80" fill="white"/>
  <text x="501.00" y="209.00" fill="black" text-anchor="start" dominant-baseline="middle">0.12s</text>
  <rect x="550.20" y="195.60" width="53.20" height="26.80" fill="white"/>
  <text x="555.20" y="209.00" fill="black" text-anchor="start" dominant-baseline="middle">0.21s</text>
  <rect x="604.40" y="195.60" width="46.00" height="26.80" fill="white"/>
  <text x="609.40" y="209.00" fill="black" text-anchor="start" dominant-baseline="middle"></text>
  <rect x="651.40" y="195.60" width="53.20" height="26.80" fill="white"/>
  <text x="656.40" y="209.00" fill="black" text-anchor="start" dominant-baseline="middle"></text>
  <rect x="705.60" y="195.60" width="46.00" height="26.80" fill="white"/>
  <text x="710.60" y="209.00" fill="black" text-anchor="start" dominant-baseline="middle"></text>
  <rect x="752.60" y="195.60" width="53.20" height="26.80" fill="white"/>
  <text x="757.60" y="209.00" fill="black" text-anchor="start" dominant-baseline="middle"></text>
  <rect x="806.80" y="195.60" width="53.20" height="26.80" fill="white"/>
  <text x="811.80" y="209.00" fill="black" text-anchor="start" dominant-baseline="middle"></text>
  <rect x="1.00" y="223.40" width="60.40" height="26.80" fill="#F9F9F9"/>
  <text x="6.00" y="236.80" fill="black" text-anchor="start" dominant-baseline="middle">CI95</text>
  <rect x="62.40" y="223.40" width="53.20" height="26.80" fill="#F9F9F9"/>
  <text x="67.40" y="236.80" fill="black" text-anchor="start" dominant-baseline="middle">±0.44s</text>
  <rect x="116.60" y="223.40" width="53.20" height="26.80" fill="#F9F9F9"/>
  <text x="121.60" y="236.80" fill="black" text-anchor="start" dominant-baseline="middle">±0.25s</text>
  <rect x="170.80" y="223.40" width="53.20" height="26.80" fill="#F9F9F9"/>
  <text x="175.80" y="236.80" fill="black" text-anchor="start" dominant-baseline="middle">±0.27s</text>
  <rect x="225.00" y="223.40" width="53.20" height="26.80" fill="#F9F9F9"/>
  <text x="230.00" y="236.80" fill="black" text-anchor="start" dominant-baseline="middle">±0.23s</text>
  <rect x="279.20" y="223.40" width="53.20" height="26.80" fill="#F9F9F9"/>
  <text x="284.20" y="236.80" fill="black" text-anchor="start" dominant-baseline="middle">±0.30s</text>
  <rect x="333.40" y="223.40" width="53.20" height="26.80" fill="#F9F9F9"/>
  <text x="338.40" y="236.80" fill="black" text-anchor="start" dominant-baseline="middle">±0.37s</text>
  <rect x="387.60" y="223.40" width="53.20" height="26.80" fill="#F9F9F9"/>
  <text x="392.60" y="236.80" fill="black" text-anchor="start" dominant-baseline="middle">±0.19s</text>
  <rect x="441.80" y="223.40" width="53.20" height="26.80" fill="#F9F9F9"/>
  <text x="446.80" y="236.80" fill="black" text-anchor="start" dominant-baseline="middle">±0.23s</text>
  <rect x="496.00" y="223.40" width="53.20" height="26.80" fill="#F9F9F9"/>
  <text x="501.00" y="236.80" fill="black" text-anchor="start" dominant-baseline="middle">±0.24s</text>
  <rect x="550.20" y="223.40" width="53.20" height="26.80" fill="#F9F9F9"/>
  <text x="555.20" y="236.80" fill="black" text-anchor="start" dominant-baseline="middle">±0.41s</text>
  <rect x="604.40" y="223.40" width="46.00" height="26.80" fill="#F9F9F9"/>
  <text x="609.40" y="236.80" fill="black" text-anchor="start" dominant-baseline="middle"></text>
  <rect x="651.40" y="223.40" width="53.20" height="26.80" fill="#F9F9F9"/>
  <text x="656.40" y="236.80" fill="black" text-anchor="start" dominant-baseline="middle"></text>
  <rect x="705.60" y="223.40" width="46.00" height="26.80" fill="#F9F9F9"/>
  <text x="710.60" y="236.80" fill="black" text-anchor="start" dominant-baseline="middle"></text>
  <rect x="752.60" y="223.40" width="53.20" height="26.80" fill="#F9F9F9"/>
  <text x="757.60" y="236.80" fill="black" text-anchor="start" dominant-baseline="middle"></text>
  <rect x="806.80" y="223.40" width="53.20" height="26.80" fill="#F9F9F9"/>
  <text x="811.80" y="236.80" fill="black" text-anchor="start" dominant-baseline="middle"></text>
  <rect x="1.00" y="251.20" width="60.40" height="26.80" fill="white"/>
  <text x="6.00" y="264.60" fill="black" text-anchor="start" dominant-baseline="middle">CV</text>
  <rect x="62.40" y="251.20" width="53.20" height="26.80" fill="white"/>
  <text x="67.40" y="264.60" fill="black" text-anchor="start" dominant-baseline="middle">17.60%</text>
  <rect x="116.60" y="251.20" width="53.20" height="26.80" fill="white"/>
  <text x="121.60" y="264.60" fill="black" text-anchor="start" dominant-baseline="middle">9.03%</text>
  <rect x="170.80" y="251.20" width="53.20" height="26.80" fill="white"/>
  <text x="175.80" y="264.60" fill="black" text-anchor="start" dominant-baseline="middle">9.31%</text>
  <rect x="225.00" y="251.20" width="53.20" height="26.80" fill="white"/>
  <text x="230.00" y="264.60" fill="black" text-anchor="start" dominant-baseline="middle">8.32%</text>
  <rect x="279.20" y="251.20" width="53.20" height="26.80" fill="white"/>
  <text x="284.20" y="264.60" fill="black" text-anchor="start" dominant-baseline="middle">11.29%</text>
  <rect x="333.40" y="251.20" width="53.20" height="26.80" fill="white"/>
  <text x="338.40" y="264.60" fill="black" text-anchor="start" dominant-baseline="middle">14.28%</text>
  <rect x="387.60" y="251.20" width="53.20" height="26.80" fill="white"/>
  <text x="392.60" y="264.60" fill="black" text-anchor="start" dominant-baseline="middle">7.48%</text>
  <rect x="441.80" y="251.20" width="53.20" height="26.80" fill="white"/>
  <text x="446.80" y="264.60" fill="black" text-anchor="start" dominant-baseline="middle">8.13%</text>
  <rect x="496.00" y="251.20" width="53.20" height="26.80" fill="white"/>
  <text x="501.00" y="264.60" fill="black" text-anchor="start" dominant-baseline="middle">9.07%</text>
  <rect x="550.20" y="251.20" width="53.20" height="26.80" fill="white"/>
  <text x="555.20" y="264.60" fill="black" text-anchor="start" dominant-baseline="middle">14.30%</text>
  <rect x="604.40" y="251.20" width="46.00" height="26.80" fill="white"/>
  <text x="609.40" y="264.60" fill="black" text-anchor="start" dominant-baseline="middle"></text>
  <rect x="651.40" y="251.20" width="53.20" height="26.80" fill="white"/>
  <text x="656.40" y="264.60" fill="black" text-anchor="start" dominant-baseline="middle"></text>
  <rect x="705.60" y="251.20" width="46.00" height="26.80" fill="white"/>
  <text x="710.60" y="264.60" fill="black" text-anchor="start" dominant-baseline="middle"></text>
  <rect x="752.60" y="251.20" width="53.20" height="26.80" fill="white"/>
  <text x="757.60" y="264.60" fill="black" text-anchor="start" dominant-baseline="middle"></text>
  <rect x="806.80" y="251.20" width="53.20" height="26.80" fill="white"/>
  <text x="811.80" y="264.60" fill="black" text-anchor="start" dominant-baseline="middle"></text>
  <g class="table-borders" stroke="black" stroke-width="1.00" stroke-linecap="square">
    <line x1="0.50" y1="0.50" x2="860.50" y2="0.50" />
    <line x1="0.50" y1="28.30" x2="860.50" y2="28.30" />
    <line x1="0.50" y1="56.10" x2="860.50" y2="56.10" />
    <line x1="0.50" y1="83.90" x2="860.50" y2="83.90" />
    <line x1="0.50" y1="111.70" x2="860.50" y2="111.70" />
    <line x1="0.50" y1="139.50" x2="860.50" y2="139.50" />
    <line x1="0.50" y1="167.30" x2="860.50" y2="167.30" />
    <line x1="0.50" y1="195.10" x2="860.50" y2="195.10" />
    <line x1="0.50" y1="222.90" x2="860.50" y2="222.90" />
    <line x1="0.50" y1="250.70" x2="860.50" y2="250.70" />
    <line x1="0.50" y1="278.50" x2="860.50" y2="278.50" />
    <line x1="0.50" y1="0.50" x2="0.50" y2="278.50" />
    <line x1="61.90" y1="0.50" x2="61.90" y2="278.50" />
    <line x1="116.10" y1="0.50" x2="116.10" y2="278.50" />
    <line x1="170.30" y1="0.50" x2="170.30" y2="278.50" />
    <line x1="224.50" y1="0.50" x2="224.50" y2="278.50" />
    <line x1="278.70" y1="0.50" x2="278.70" y2="278.50" />
    <line x1="332.90" y1="0.50" x2="332.90" y2="278.50" />
    <line x1="387.10" y1="0.50" x2="387.10" y2="278.50" />
    <line x1="441.30" y1="0.50" x2="441.30" y2="278.50" />
    <line x1="495.50" y1="0.50" x2="495.50" y2="278.50" />
    <line x1="549.70" y1="0.50" x2="549.70" y2="278.50" />
    <line x1="603.90" y1="0.50" x2="603.90" y2="278.50" />
    <line x1="650.90" y1="0.50" x2="650.90" y2="278.50" />
    <line x1="705.10" y1="0.50" x2="705.10" y2="278.50" />
    <line x1="752.10" y1="0.50" x2="752.10" y2="278.50" />
    <line x1="806.30" y1="0.50" x2="806.30" y2="278.50" />
    <line x1="860.50" y1="0.50" x2="860.50" y2="278.50" />
  </g>
</svg>

